HIERARCHY
ROOT Hips
{
  OFFSET 13.6774 106.653 -34.4427
  CHANNELS 6 Xposition Yposition Zposition Zrotation Xrotation Yrotation
  JOINT ToSpine
  {
    OFFSET -2.69724 7.43032 -0.144315
    CHANNELS 3 Zrotation Xrotation Yrotation
    JOINT Spine
    {
      OFFSET -0.0310711 10.7595 1.96963
      CHANNELS 3 Zrotation Xrotation Yrotation
      JOINT Spine1
      {
        OFFSET 19.9056 3.91189 0.764692
        CHANNELS 3 Zrotation Xrotation Yrotation
        JOINT Neck
        {
          OFFSET 25.9749 7.03908 -0.130764
          CHANNELS 3 Zrotation Xrotation Yrotation
          JOINT Head
          {
            OFFSET 9.52751 0.295786 -0.907742
            CHANNELS 3 Zrotation Xrotation Yrotation
            End Site
            {
              OFFSET 16.4037 0.713936 2.7358
            }
          }
        }
        JOINT LeftShoulder
        {
          OFFSET 17.7449 4.33886 11.7777
          CHANNELS 3 Zrotation Xrotation Yrotation
          JOINT LeftArm
          {
            OFFSET 0.911315 1.27913 9.80584
            CHANNELS 3 Zrotation Xrotation Yrotation
            JOINT LeftForeArm
            {
              OFFSET 28.6126 1.18197 -3.53199
              CHANNELS 3 Zrotation Xrotation Yrotation
              JOINT LeftHand
              {
                OFFSET 27.5088 0.0218783 0.327423
                CHANNELS 3 Zrotation Xrotation Yrotation
                End Site
                {
                  OFFSET 18.6038 -0.000155887 0.382096
                }
              }
            }
          }
        }
        JOINT RightShoulder
        {
          OFFSET 17.1009 2.89543 -12.2328
          CHANNELS 3 Zrotation Xrotation Yrotation
          JOINT RightArm
          {
            OFFSET 1.4228 0.178766 -10.211
            CHANNELS 3 Zrotation Xrotation Yrotation
            JOINT RightForeArm
            {
              OFFSET 28.733 1.87905 2.64907
              CHANNELS 3 Zrotation Xrotation Yrotation
              JOINT RightHand
              {
                OFFSET 27.4588 0.290562 -0.101845
                CHANNELS 3 Zrotation Xrotation Yrotation
                End Site
                {
                  OFFSET 17.8396 -0.255518 -0.000602873
                }
              }
            }
          }
        }
      }
    }
  }
  JOINT LeftUpLeg
  {
    OFFSET -5.61296 -2.22332 -10.2353
    CHANNELS 3 Zrotation Xrotation Yrotation
    JOINT LeftLeg
    {
      OFFSET 2.56703 -44.7417 -7.93097
      CHANNELS 3 Zrotation Xrotation Yrotation
      JOINT LeftFoot
      {
        OFFSET 3.16933 -46.5642 -3.96578
        CHANNELS 3 Zrotation Xrotation Yrotation
        JOINT LeftToeBase
        {
          OFFSET 0.346054 -6.02161 12.8035
          CHANNELS 3 Zrotation Xrotation Yrotation
          End Site
          {
            OFFSET 0.134235 -1.35082 5.13018
          }
        }
      }
    }
  }
  JOINT RightUpLeg
  {
    OFFSET -5.7928 -1.72406 10.6446
    CHANNELS 3 Zrotation Xrotation Yrotation
    JOINT RightLeg
    {
      OFFSET -2.57161 -44.7178 -7.85259
      CHANNELS 3 Zrotation Xrotation Yrotation
      JOINT RightFoot
      {
        OFFSET -3.10148 -46.5936 -4.03391
        CHANNELS 3 Zrotation Xrotation Yrotation
        JOINT RightToeBase
        {
          OFFSET -0.0828122 -6.13587 12.8035
          CHANNELS 3 Zrotation Xrotation Yrotation
          End Site
          {
            OFFSET -0.131328 -1.35082 5.13018
          }
        }
      }
    }
  }
}
MOTION
Frames: 17
Frame Time: 0.03333333333333333
0.0000 93.1000 0.0000 71.2265 -11.9327 -4.7780 -70.4125 -0.1280 88.1328 83.2206 70.1893 -2.7566 -5.3682 16.1052 12.6185 -132.9390 41.1102 154.7223 -125.7720 81.8075 148.3877 -0.0678 -13.9050 -23.9158 -78.6660 32.8191 -142.4679 20.3759 -6.1564 -102.9866 -0.0649 0.0687 -0.1064 -2.4164 6.9961 38.8970 -138.3610 6.2288 84.4892 11.8436 -0.7403 87.8842 0.0299 -0.1554 -0.0120 -57.3158 10.2222 98.1619 -2.2209 30.9541 -3.9982 -2.4757 -12.5088 -1.6137 3.0024 -10.2265 13.8733 -51.9752 -9.8630 81.6352 0.2195 30.9804 12.1757 -3.9947 -13.0149 1.0637 2.3841 -13.4274 -13.1191 
0.0000 93.1000 0.0000 71.1785 -11.3771 -4.6401 -70.3941 -0.1775 88.0815 81.5007 70.0475 -2.9435 -5.4307 15.9917 12.5460 -133.9137 41.2004 153.3024 -124.6159 81.8188 148.5652 -0.0557 -14.3794 -23.8121 -78.5101 31.8926 -143.4246 20.0804 -6.5087 -103.2571 -0.3577 0.0256 -0.0236 -2.1019 6.9895 38.8871 -139.1739 6.2354 84.4576 11.1556 -0.5595 88.1857 -0.1000 -0.1711 0.0202 -57.8455 9.8475 98.0320 -1.1468 29.0210 -5.9643 -3.1230 -11.8879 -1.3553 2.7763 -9.4680 15.1917 -51.6288 -10.2413 81.5601 1.3463 31.0841 13.0750 -4.3788 -13.0457 0.9210 2.7177 -13.3963 -14.8124 
0.0000 93.1000 0.0000 71.0877 -11.0620 -4.6618 -70.4362 -0.0428 88.1516 84.4862 70.2512 -5.0091 -6.0445 16.3589 12.0190 -133.9573 41.8142 152.7926 -120.6030 82.1538 142.5636 -0.0152 -14.6925 -23.4875 -78.0300 31.5659 -144.3367 20.1320 -6.2681 -104.0698 -0.0537 0.1828 -0.2381 -2.1486 6.6952 38.9323 -139.3012 6.8412 84.7127 10.9992 -0.6507 87.9307 0.0397 -0.3436 -0.1023 -58.2301 9.9958 98.7888 -0.8626 27.6480 -5.0959 -3.5669 -12.3771 -1.3882 1.1549 -7.8070 13.3837 -50.8231 -10.9605 80.5580 1.2469 30.9405 12.6806 -4.1499 -13.1981 0.9137 1.8416 -12.8888 -13.9601 
0.0000 93.1000 0.0000 71.2495 -11.1137 -4.1632 -70.5412 -0.1179 88.0921 86.6062 70.8713 -6.5931 -6.4928 17.1461 11.3053 -134.9150 42.0145 151.9126 -122.1147 82.1117 141.9153 -0.0459 -14.3819 -23.4308 -77.7851 31.9632 -144.4207 21.0607 -6.0156 -104.0359 -0.2400 0.1419 -0.5160 -2.2632 7.0748 38.8503 -139.2663 7.1872 85.5186 10.8411 -0.6935 88.1064 0.2305 -0.5845 -0.4426 -58.8880 9.8011 99.0060 -0.6469 26.8879 -5.5911 -3.6099 -11.8069 -1.0612 1.0360 -6.8704 13.8508 -50.7969 -10.9114 80.4635 0.6006 31.0650 13.0909 -4.7817 -12.5517 1.0009 1.8870 -10.3900 -12.7778 
0.0000 93.1000 0.0000 72.0247 -11.0276 -4.7075 -70.5393 0.1004 88.1516 86.4873 70.9790 -6.6011 -6.2767 17.1652 10.8021 -135.9407 41.9294 153.3333 -121.4536 82.0774 142.6129 -0.2114 -14.6047 -23.8708 -76.6320 31.8309 -144.3724 21.1808 -6.3440 -104.1500 0.0634 0.0025 0.0176 -2.0132 6.7772 38.0094 -139.2203 6.3320 84.9359 10.7272 -0.7584 87.9393 -0.0730 0.0772 0.0337 -58.9788 9.1576 99.3772 -1.1815 26.7579 -5.0006 -3.3655 -10.7263 -0.9916 -0.0578 -6.4077 13.1743 -50.8664 -10.8248 81.2632 0.6727 32.1473 12.1939 -4.5014 -12.9276 0.8138 1.9677 -7.6415 -12.1083 
0.0000 93.1000 0.0000 72.2659 -11.4514 -5.0099 -70.4906 0.3420 88.2076 86.7416 70.9382 -6.9070 -6.2500 17.2149 10.6988 -134.9911 42.1460 153.6172 -123.2458 82.2758 144.9140 0.0950 -14.8126 -24.1624 -76.8742 31.7027 -143.2374 20.6895 -6.3713 -104.1632 -0.0827 0.1672 -0.1976 -1.9115 7.0382 37.8426 -139.0928 6.0027 84.6272 10.3558 -0.5562 87.7785 0.0167 -0.2565 -0.1459 -59.0649 8.9781 99.1230 -1.1918 26.7555 -4.5524 -3.2657 -10.6113 -1.2726 -0.1983 -5.5603 11.6841 -50.8450 -10.1562 82.2366 1.0519 32.2048 11.7929 -4.0829 -13.2941 1.2535 1.5421 -7.0344 -11.5614 
0.0000 93.1000 0.0000 73.5380 -12.0206 -4.2617 -70.4157 0.1943 88.2857 85.5659 71.0802 -6.4664 -5.8214 17.6730 10.9460 -134.6947 41.7064 153.7655 -121.5177 82.1336 144.6139 0.0954 -14.2043 -23.9935 -76.2541 31.9455 -143.2421 20.1164 -5.8753 -103.9545 -0.1184 0.0974 -0.1456 -1.9723 7.3605 37.6860 -138.0897 5.8363 85.5467 10.5555 -0.4327 87.7573 0.2175 -0.5649 -0.3329 -59.9429 9.0594 99.4932 -0.7473 26.0994 -3.5484 -3.7280 -10.6122 -1.1669 0.0960 -4.6222 10.9849 -50.5475 -11.0083 82.2003 1.2601 32.3045 11.9019 -3.8049 -13.4939 1.3849 1.0407 -7.8638 -10.7432 
0.0000 93.1000 0.0000 73.3036 -11.5127 -6.0722 -70.4483 -0.0161 88.3800 84.4410 70.8079 -5.5809 -5.6954 17.2188 10.9184 -134.8728 42.0326 152.8837 -123.7307 82.6364 147.4206 0.0021 -14.1119 -24.3023 -76.7642 31.9939 -142.4764 20.7281 -6.0317 -104.9597 -0.1100 -0.1912 0.0056 -1.8250 7.1161 37.4837 -138.0421 4.6745 84.6551 10.9468 -0.3803 88.1094 0.2701 -0.1399 0.0192 -60.0438 9.1904 100.0915 -1.0035 25.9643 -5.2361 -3.0512 -10.6471 -1.1431 0.1276 -4.7706 11.2061 -50.5961 -10.6383 81.3737 1.5909 31.7682 10.7379 -4.0226 -12.1475 1.2813 0.8817 -7.8315 -8.6804 
0.0000 93.1000 0.0000 72.8545 -11.1263 -5.5636 -70.4817 0.3921 88.3564 83.6143 71.1257 -4.6422 -5.1984 17.2063 10.9180 -135.0221 41.9484 154.2675 -126.6944 82.9345 148.3413 0.2826 -14.6675 -24.1580 -75.8666 31.7071 -142.4608 20.5721 -5.9061 -105.0880 -0.0903 0.0928 -0.1399 -1.6796 6.8559 36.6115 -137.2522 4.0509 84.9688 10.6192 -0.8443 88.1805 0.1428 -0.3248 -0.3239 -60.0846 9.0991 100.1910 -1.0965 25.8121 -6.3622 -2.9361 -9.8870 -1.0782 0.4854 -4.9459 11.0367 -51.7265 -10.9239 81.1932 1.0645 30.9302 10.2664 -3.6725 -11.3161 1.1937 0.9597 -8.3319 -4.6645 
0.0000 93.1000 0.0000 75.2788 -11.3301 -5.9306 -70.4063 0.5005 88.3979 82.6652 71.0751 -4.5047 -5.1062 17.1922 11.0658 -134.9267 41.7688 153.9523 -124.7558 82.8381 146.2865 0.1949 -14.0144 -24.1098 -76.2032 31.8872 -142.5797 20.7010 -5.3129 -104.5287 0.4920 -0.0050 0.5700 -1.2643 6.8322 36.4284 -137.3607 4.2652 84.4791 10.6473 -0.8288 88.2183 -0.2356 0.8628 0.9078 -59.8835 8.9355 100.0530 -1.2453 26.1539 -6.2450 -2.6752 -9.6739 -1.1005 -0.4432 -4.3908 10.6179 -51.8756 -10.6107 82.3066 1.1391 31.5585 10.4359 -4.3366 -10.7926 0.9885 2.3692 -9.0915 -5.7112 
0.0000 93.1000 0.0000 74.2258 -11.0556 -5.9967 -70.5708 -0.1538 88.1769 82.6723 71.0900 -3.3238 -4.9039 17.7218 10.5917 -134.1901 42.1729 153.8755 -125.4967 82.7379 147.3935 -0.0694 -13.9153 -24.1751 -75.7708 31.9306 -142.6035 20.6870 -6.1877 -103.9459 0.0392 -0.0410 0.2212 -1.9072 6.7114 36.6148 -136.9238 3.7157 84.6870 10.9583 -0.7699 88.1153 0.1860 0.2911 0.2004 -60.6725 8.8492 99.9379 -0.8288 25.5959 -6.3873 -3.3650 -8.7788 -0.6541 0.0294 -5.6655 11.7998 -51.6433 -11.1773 82.5303 0.6800 31.6717 10.4010 -4.3092 -11.2874 0.9926 1.1055 -7.7974 -4.6814 
0.0000 93.1000 0.0000 74.1610 -11.0643 -6.3438 -70.6505 -0.0547 88.1310 82.8325 70.8815 -3.3550 -4.6153 17.4831 10.8624 -135.0503 42.6600 153.9538 -128.5418 82.9507 151.0403 0.3509 -13.8058 -24.0999 -75.7918 31.9908 -142.4632 21.3099 -6.8249 -104.9687 0.0593 0.4357 -0.2333 -1.6693 7.0087 36.6593 -137.0301 3.8784 84.7191 10.6388 -0.6587 88.0892 0.0364 -0.1879 -0.0107 -61.1235 8.8650 100.0946 0.0879 24.6771 -6.2697 -2.9773 -8.9277 -1.1604 0.1196 -6.1117 10.6915 -51.6782 -11.0408 82.2467 0.7482 31.9389 10.4360 -4.0375 -10.8782 1.3007 1.0954 -8.7944 -4.0071 
0.0000 93.1000 0.0000 74.4880 -11.1161 -6.2877 -70.6380 0.1508 88.1111 81.8070 70.8847 -3.2007 -4.1171 17.2529 11.0452 -135.0918 43.0343 155.0371 -131.5380 83.5817 152.8710 0.2204 -13.8470 -24.1810 -76.0612 31.8692 -141.3860 21.4275 -6.7026 -105.3092 0.1636 0.1861 0.2729 -1.5884 7.0133 36.4521 -137.3440 3.0784 84.5892 10.5760 -0.8764 88.2780 -0.0607 0.5851 0.5533 -61.0533 8.9692 100.0024 0.0621 24.7317 -6.2709 -2.8268 -8.7210 -1.3563 -0.4366 -5.4627 10.0236 -51.5221 -10.7982 82.5996 0.9354 32.3231 8.5426 -4.3380 -10.2189 1.0019 1.9268 -9.0430 -2.9066 
0.0000 93.1000 0.0000 75.0128 -11.2357 -4.8531 -70.5427 -0.0821 88.1223 80.8043 70.9302 -1.5487 -3.8746 17.1873 11.1356 -134.9370 42.9196 155.5072 -132.5735 83.3230 151.3665 -0.1754 -14.1716 -24.1418 -75.7551 31.9620 -141.4750 21.3091 -6.1930 -105.1813 -0.1603 0.0671 0.2845 -2.0404 6.9130 36.5327 -137.2226 2.4025 84.3836 10.9629 -0.8058 88.2652 -0.0892 0.2729 0.0793 -61.1737 8.8022 100.1252 0.1542 24.6444 -6.0392 -3.1782 -8.2378 -1.0366 -0.2554 -5.8995 10.5460 -51.6493 -10.8596 82.3437 0.9208 30.8500 8.0309 -3.1397 -9.8040 0.9036 1.0969 -7.9595 -4.0764 
0.0000 93.1000 0.0000 74.2101 -11.1144 -5.3190 -70.5288 0.0414 88.0781 78.8275 71.0257 0.1762 -3.1314 17.3238 10.8916 -135.0722 42.9190 154.7021 -131.7537 83.9206 150.8901 -0.2482 -14.5169 -25.0411 -75.6333 32.0274 -141.4148 20.9804 -5.9750 -105.1451 0.0914 0.0044 0.4338 -1.9146 6.6675 37.5087 -137.2479 2.7473 84.4279 10.6611 -0.5012 88.1746 0.0323 0.5228 0.0041 -60.9734 8.9997 101.0137 -0.2268 24.5392 -5.8952 -3.0030 -8.7336 -1.1212 0.0467 -5.9130 10.0836 -51.4869 -10.8631 82.4641 1.1023 31.0841 7.8534 -3.1030 -10.0476 0.9704 1.4983 -8.7354 -2.7209 
0.0000 93.1000 0.0000 75.0795 -10.9323 -5.5962 -70.5315 0.1501 88.1646 78.8236 70.9785 0.4180 -2.9188 17.1631 10.7504 -135.1272 42.9347 155.0987 -129.5434 84.0175 149.0961 -0.2055 -14.2245 -25.0276 -75.8448 31.9743 -141.3217 20.9197 -6.1492 -105.1274 0.0591 0.0560 0.1960 -1.9302 6.7956 37.5525 -137.4148 2.7458 84.4919 10.5888 -0.5869 88.1519 0.0199 0.1370 0.0152 -60.9334 8.8540 101.3319 -0.5461 24.7789 -5.9797 -3.0038 -8.6941 -0.8781 0.6083 -5.8185 9.9760 -51.7198 -10.9535 82.3542 0.9129 31.1788 8.4602 -2.9413 -10.0351 1.2013 1.1721 -7.6168 -3.0930 
0.0000 93.1000 0.0000 74.1676 -11.0584 -5.6832 -70.4774 -0.0843 88.1860 77.9132 70.8230 1.2257 -2.8751 17.0379 10.9679 -135.1678 42.8841 155.6922 -130.0528 83.8376 150.0439 -0.1791 -14.4606 -24.2443 -75.7346 31.9137 -141.4317 20.9129 -6.8315 -105.1692 0.1392 0.0640 0.1092 -2.0517 6.8381 37.5800 -137.4825 2.6185 83.3391 10.7679 -0.7354 87.9817 0.2145 0.1185 -0.0310 -61.1449 8.7608 101.2628 0.0565 24.8527 -6.4287 -3.1723 -8.9565 -0.8736 1.0638 -5.4834 9.4313 -51.6990 -11.2780 83.2865 0.8298 32.1490 8.7094 -2.9257 -10.0003 1.2699 1.2083 -7.8566 -2.7946 
